<?xml version="1.0" encoding="utf-8"?>
<!-- Generator: Adobe Illustrator 15.0.0, SVG Export Plug-In . SVG Version: 6.00 Build 0)  -->
<!DOCTYPE svg PUBLIC "-//W3C//DTD SVG 1.1//EN" "http://www.w3.org/Graphics/SVG/1.1/DTD/svg11.dtd">
<svg version="1.1" id="Layer_1" xmlns="http://www.w3.org/2000/svg" xmlns:xlink="http://www.w3.org/1999/xlink" x="0px" y="0px"
	 width="251.987px" height="242.33px" viewBox="68.755 0 251.987 242.33" enable-background="new 68.755 0 251.987 242.33"
	 xml:space="preserve">
<g>
	<g>
		<path fill="#FFFFFF" d="M252.19,16.239l42.52,7.229c0,0,3.8,1.259,7.342,5.325c4.271,4.9,3.797,8.485,3.797,8.485l-18.267,107.436
			l-55.627-9.458L252.19,16.239z"/>
		<g>
			
				<rect x="202.486" y="90.96" transform="matrix(0.1676 -0.9859 0.9859 0.1676 136.9444 346.5925)" fill="#B5C9C8" width="142.455" height="2.484"/>
		</g>
		<g>
			
				<rect x="290.633" y="41.571" transform="matrix(0.1681 -0.9858 0.9858 0.1681 190.7695 331.645)" fill="#B5C9C8" width="2.487" height="22.451"/>
		</g>
		<g>
			
				<rect x="288.225" y="55.879" transform="matrix(0.1673 -0.9859 0.9859 0.1673 174.8739 341.2629)" fill="#B5C9C8" width="2.486" height="22.45"/>
		</g>
		<polygon opacity="0.2" fill="#C8D2D6" enable-background="new    " points="256.508,52.906 297.814,84.539 293.908,110.462 
			253.605,82.406 		"/>
		<path fill="#FFFFFF" d="M186.681,50.934c0,0-4.635-15.063-23.115-10.833c-18.93,4.333-17.493,19.81-17.493,19.81l5.962,26.053
			c0,0,3.406,20.262,15.624,29.263c11.889,8.756,34.196,2,34.196,2l42.697-9.771l-9.28-40.542l-42.696,9.773L186.681,50.934z"/>
		<path fill="#B5C9C8" d="M164.647,96.074c-3.016,0.69-5.713,2.026-8.009,3.804c2.425,5.501,6.03,11.401,11.254,15.249
			c6.009,4.426,14.673,4.888,21.778,4.264c0.394-2.518,0.338-5.145-0.264-7.781C186.858,100.485,175.776,93.53,164.647,96.074z"/>
		<g>
			<polygon fill="#B5C9C8" points="179.719,98.513 194.301,76.289 192.576,76.685 192.185,74.976 177.39,97.541 			"/>
		</g>
		<path fill="#B5C9C8" d="M163.522,40.111c-18.931,4.333-17.495,19.811-17.495,19.811l0.278,1.213l40.54-9.278l-0.209-0.91
			C186.636,50.946,182,35.88,163.522,40.111z"/>
		<path fill="#FFFFFF" d="M194.397,138.535c0,0-9.47-7.462-12.632-9.938c-10.381-8.128-30.455-8.285-39.82,3.102
			c-4.979,6.054-13.49,16.849-21.265,26.787c-1.3-0.653-4.466-2.077-7.398-2.066c-5.839,0.02-7.749,3.274-7.749,3.274
			l-11.117,14.131l8.886,6.991c-0.018,0.024-0.046,0.061-0.046,0.061l35.718,28.104l29.016-36.882
			c1.11,0.99,3.912,3.356,7.792,6.457L194.397,138.535z"/>
		<path opacity="0.2" fill="#C8D2D6" enable-background="new    " d="M203.273,153.849c0,0-13.754-5.683-17.645-6.68
			c-11.924-3.055-29.869-1.741-41.056,7.862c-11.651,10-13.62,47.64-13.62,47.64l11.87,6.559l25.874-14.213
			c1.11,0.991,3.912,3.356,7.793,6.458L203.273,153.849z"/>
		
			<rect x="91.755" y="181.423" transform="matrix(-0.786 -0.6183 0.6183 -0.786 98.735 408.0213)" fill="#B5C9C8" width="56.473" height="10.996"/>
		<g>
			
				<rect x="164.995" y="142.692" transform="matrix(0.993 -0.1183 0.1183 0.993 -17.4595 20.7757)" fill="#B5C9C8" width="2.484" height="29.469"/>
		</g>
		<g>
			
				<rect x="142.954" y="142.564" transform="matrix(0.6185 -0.7857 0.7857 0.6185 -74.9315 176.3823)" fill="#B5C9C8" width="2.488" height="45.604"/>
		</g>
		<path fill="#B5C9C8" d="M141.14,132.651c3.506,7.833,12.049,12.835,21.332,11.728c9.377-1.117,16.547-8.123,18.01-16.685
			c-10.673-7.214-29.565-6.943-38.567,4.005C141.668,132,141.403,132.324,141.14,132.651z"/>
		<path fill="#FFFFFF" d="M128.119,234.53c-0.005,0.031-0.013,0.075-0.013,0.075l44.81,7.62l7.861-46.265
			c6.205,1.457,54.402,12.417,70.652,5.132c38.932-17.454,34.839-48.639,34.839-48.639l-19.85-90.563l-62.768,8.586l-15.715,83.382
			c0,0-11.882-2.03-15.841-2.693c-13.005-2.181-30.715,7.272-33.499,21.753c-1.479,7.696-3.795,21.246-5.878,33.691
			c-1.456,0.047-4.915,0.311-7.487,1.719c-5.12,2.808-5.241,6.58-5.241,6.58l-3.015,17.726L128.119,234.53z"/>
		<path fill="#B5C9C8" d="M138.343,174.136c6.824,5.21,16.72,5.519,24.343,0.11c7.704-5.463,10.655-15.042,7.851-23.262
			c-12.824-1.237-29.289,8.03-31.964,21.948C138.498,173.315,138.419,173.727,138.343,174.136z"/>
		
			<rect x="117.632" y="226.681" transform="matrix(-0.9859 -0.1676 0.1676 -0.9859 250.7634 485.5189)" fill="#B5C9C8" width="56.472" height="10.996"/>
		<g>
			<polygon fill="#B5C9C8" points="180.485,197.684 180.779,195.96 182.588,196.378 164.722,171.279 162.694,172.719 			"/>
		</g>
		<g>
			
				<rect x="155.561" y="178.601" transform="matrix(0.1673 -0.9859 0.9859 0.1673 -67.9952 322.2945)" fill="#B5C9C8" width="2.486" height="45.6"/>
		</g>
		<g>
			<circle fill="#FFFFFF" cx="235.153" cy="42.282" r="42.266"/>
			<path opacity="0.8" fill="#E6E9F4" enable-background="new    " d="M203.385,70.164c16.214,2.234,31.271-3.202,38.78-13.506
				c0.026-0.038,0.048-0.077,0.073-0.113c-3.56-5.385-2.241-12.656,3.065-16.417c0.552-0.394,1.133-0.719,1.725-1.008
				c-1.329-14.564-14.702-28.38-33.516-33.13c-0.951,0.567-1.894,1.166-2.813,1.817c-19.042,13.507-23.526,39.889-10.021,58.927
				C201.533,67.937,202.437,69.079,203.385,70.164z"/>
			<circle fill="#B5C9C8" cx="252.257" cy="49.928" r="12.017"/>
		</g>
		<path opacity="0.2" fill="#C8D2D6" enable-background="new    " d="M228.788,138.171c0,0-12.149,10.039-1.183,25.501
			c11.236,15.839,24.991,8.601,24.991,8.601l21.8-15.464c0,0,17.42-10.887,21.071-25.619c3.55-14.331-11.215-32.366-11.215-32.366
			l-23.035-27.034l-28.083,14.012l17.197,37.086L228.788,138.171z"/>
		<path fill="#FFFFFF" d="M236.931,136.807c0,0-12.149,10.039-1.182,25.5c11.237,15.841,24.988,8.601,24.988,8.601l21.802-15.463
			c0,0,17.421-10.887,21.071-25.618c3.553-14.333-11.214-32.366-11.214-32.366l-25.344-35.724l-33.921,24.063l25.345,35.725
			L236.931,136.807z"/>
		<path fill="#B5C9C8" d="M287.268,139.953c1.79,2.524,4.053,4.507,6.573,5.949c4.159-4.341,8.232-9.931,9.793-16.228
			c1.795-7.241-1.088-15.427-4.38-21.753c-2.478,0.6-4.884,1.654-7.089,3.217C282.855,117.742,280.662,130.643,287.268,139.953z"/>
		<g>
			<polygon fill="#B5C9C8" points="285.841,127.907 286.321,125.468 257.483,120.124 258.483,121.524 257,122.563 			"/>
		</g>
		<path fill="#B5C9C8" d="M235.777,162.346c11.236,15.838,24.989,8.6,24.989,8.6l1.014-0.718l-24.063-33.921l-0.76,0.54
			C236.958,136.845,224.81,146.885,235.777,162.346z"/>
		<polygon opacity="0.2" fill="#C8D2D6" enable-background="new    " points="201.619,74.614 202.931,74.314 194.571,118.669 
			189.672,119.39 		"/>
	</g>
</g>
</svg>
