<?xml version="1.0" encoding="utf-8"?>
<!-- Generator: Adobe Illustrator 15.0.0, SVG Export Plug-In . SVG Version: 6.00 Build 0)  -->
<!DOCTYPE svg PUBLIC "-//W3C//DTD SVG 1.1//EN" "http://www.w3.org/Graphics/SVG/1.1/DTD/svg11.dtd">
<svg version="1.1" id="Layer_1" xmlns="http://www.w3.org/2000/svg" xmlns:xlink="http://www.w3.org/1999/xlink" x="0px" y="0px"
	 width="269.861px" height="405px" viewBox="0 0 269.861 405" enable-background="new 0 0 269.861 405" xml:space="preserve">
<path fill="#FEC558" d="M219.715,246.211c0,0,70.461,19.342,46.177,149.403c-43.569-39.521-72.016-43.346-72.016-43.346"/>
<path fill="#FAA554" d="M137.511,304.811c0,0,71.89-92.27,128.379,90.805c-43.569-39.521-72.016-43.346-72.016-43.346"/>
<path fill="#FEC558" d="M80.51,352.27c0,0-28.444,3.824-72.014,43.346c-24.285-130.063,46.175-149.403,46.175-149.403"/>
<path fill="#FAA554" d="M80.51,352.27c0,0-28.444,3.824-72.014,43.346c56.493-183.073,128.378-90.805,128.378-90.805"/>
<path fill="#FFFFFF" d="M141.759,1.583c0,0-106.646,46.824-101.72,173.468c4.963,124.287,35.188,218.292,35.188,218.292
	c5.411,5.438,32.866,11.229,61.428,11.538c28.33,0.299,53.748-4.813,63.236-10.216c0,0,32.222-93.329,39.83-217.484
	C247.372,50.678,141.759,1.583,141.759,1.583z M139.927,201.825c-27.513-0.296-49.584-22.849-49.284-50.356
	c0.288-27.504,22.825-49.579,50.348-49.285c27.515,0.294,49.593,22.836,49.298,50.361
	C189.974,180.049,167.448,202.119,139.927,201.825z"/>
<path display="none" fill="none" stroke="#000000" stroke-width="15.0468" stroke-linecap="round" stroke-linejoin="round" stroke-miterlimit="10" d="
	M151.297,200.329c-13.936,3.302-32.539,5.79-50.053,5.601c-18.521-0.197-39.013-3.507-50.521-6.994"/>
<path opacity="0.6" fill="#000A23" enable-background="new    " d="M141.091,99.278c-0.283-0.003-1.215,0.122-1.493,0.124
	l0.642,106.534c29.332,0.162,53.297-23.398,53.623-52.746C194.179,123.724,170.546,99.593,141.091,99.278z"/>
<path fill="#DEE0E1" d="M140.465,92.057c-33.107,0-59.945,26.839-59.945,59.948c0,33.108,26.839,59.948,59.945,59.948
	c33.109,0,59.948-26.84,59.948-59.948C200.413,118.896,173.574,92.057,140.465,92.057z M139.929,201.825
	c-27.514-0.296-49.585-22.849-49.285-50.356c0.288-27.504,22.827-49.579,50.348-49.285c27.514,0.294,49.593,22.836,49.298,50.361
	C189.975,180.049,167.45,202.119,139.929,201.825z"/>
<path fill="#CED0D2" d="M140.465,92.057c-0.263,0-0.521,0.016-0.783,0.021v10.126c0.437-0.005,0.87-0.024,1.311-0.018
	c27.515,0.294,49.593,22.836,49.298,50.361c-0.313,27.506-22.839,49.576-50.358,49.28c-0.083,0-0.166-0.008-0.249-0.009v10.118
	c0.262,0.004,0.521,0.021,0.783,0.021c33.109,0,59.948-26.839,59.948-59.947C200.413,118.899,173.574,92.057,140.465,92.057z"/>
<path opacity="0.8" fill="#D6E5F2" enable-background="new    " d="M141.341,1.587c0,0-0.559,0.247-1.561,0.735l-0.566,99.885
	c0.455-0.007,0.902-0.023,1.361-0.02c27.515,0.294,49.593,22.836,49.298,50.36c-0.313,27.505-22.838,49.576-50.358,49.28
	c-0.287-0.004-0.57-0.023-0.857-0.031l-1.146,203.319c26.888-0.141,52.88-5.272,61.966-10.448c0,0,32.223-93.329,39.83-217.483
	C246.953,50.682,141.341,1.587,141.341,1.587z"/>
<g>
	<g>
		<path fill="#FF8349" d="M102.871,402.134c10.057,1.623,21.852,2.713,33.838,2.838c28.394,0.313,53.885-4.813,63.385-10.195
			c0,0,12.047-34.865,23.164-90.257c-23.881,4.979-54.771,8.646-84.018,8.323c-30.947-0.325-65.017-5.284-85.426-10.643
			c9.979,55.912,21.339,91.234,21.339,91.234C78.298,396.603,88.909,399.886,102.871,402.134"/>
		<path fill="#FF8349" d="M53.711,301.568"/>
		<path fill="#FF8349" d="M223.399,303.861"/>
		<path fill="#FF8349" d="M53.813,302.2"/>
		<path fill="#FF8349" d="M223.258,304.525"/>
	</g>
</g>
<path opacity="0.5" fill="#F15645" enable-background="new    " d="M139.381,312.976c-0.484-0.004-0.974-0.021-1.459-0.03v92.167
	c27.959,0.169,52.933-4.886,62.313-10.2c0,0,12.044-34.866,23.164-90.255C199.523,309.63,168.625,313.303,139.381,312.976z"/>
</svg>
