<?xml version="1.0" encoding="utf-8"?>
<!-- Generator: Adobe Illustrator 15.0.0, SVG Export Plug-In . SVG Version: 6.00 Build 0)  -->
<!DOCTYPE svg PUBLIC "-//W3C//DTD SVG 1.1//EN" "http://www.w3.org/Graphics/SVG/1.1/DTD/svg11.dtd">
<svg version="1.1" id="Layer_1" xmlns="http://www.w3.org/2000/svg" xmlns:xlink="http://www.w3.org/1999/xlink" x="0px" y="0px"
	 width="90.07px" height="6.417px" viewBox="0 0 90.07 6.417" enable-background="new 0 0 90.07 6.417" xml:space="preserve">
<path fill="none" stroke="#FF8349" stroke-width="2" stroke-miterlimit="10" d="M45.14,5.015L45.14,5.015
	c-1.827,0-3.62-1.834-4.152-2.326l0,0c-0.86-0.984-2.816-0.84-3.693-0.029c-0.531,0.492-2.08,2.246-3.318,2.355l0,0
	c-1.827,0-3.62-1.834-4.152-2.326l0,0c-0.86-0.984-2.816-0.84-3.693-0.029c-0.531,0.492-2.08,2.216-3.318,2.326
	c-2.12,0.184-4.484-2.297-4.484-2.297c-0.86-0.984-2.815-0.84-3.693-0.029c-0.531,0.492-2.079,2.246-3.318,2.355l0,0
	c-1.827,0-3.62-1.834-4.152-2.326l0,0c-0.864-0.985-2.82-0.84-3.697-0.03C2.935,3.151,1.387,4.905,0.148,5.014l0,0
	c-0.049,0.001-0.1,0-0.148-0.003"/>
<path fill="none" stroke="#FF8349" stroke-width="2" stroke-miterlimit="10" d="M90.281,5.015L90.281,5.015
	c-1.827,0-3.62-1.834-4.152-2.326l0,0c-0.86-0.984-2.816-0.84-3.693-0.029c-0.531,0.492-2.08,2.246-3.318,2.355l0,0
	c-1.827,0-3.62-1.834-4.152-2.326l0,0c-0.86-0.984-2.816-0.84-3.693-0.029c-0.531,0.492-2.08,2.216-3.318,2.326
	c-2.12,0.184-4.484-2.297-4.484-2.297c-0.86-0.984-2.815-0.84-3.693-0.029c-0.531,0.492-2.079,2.246-3.318,2.355l0,0
	c-1.827,0-3.62-1.834-4.152-2.326l0,0c-0.864-0.985-2.82-0.84-3.697-0.03c-0.531,0.492-2.079,2.246-3.318,2.355l0,0
	c-0.049,0.001-0.1,0-0.148-0.003"/>
</svg>
