<?xml version="1.0" encoding="utf-8"?>
<!-- Generator: Adobe Illustrator 15.0.0, SVG Export Plug-In . SVG Version: 6.00 Build 0)  -->
<!DOCTYPE svg PUBLIC "-//W3C//DTD SVG 1.1//EN" "http://www.w3.org/Graphics/SVG/1.1/DTD/svg11.dtd">
<svg version="1.1" id="Layer_1" xmlns="http://www.w3.org/2000/svg" xmlns:xlink="http://www.w3.org/1999/xlink" x="0px" y="0px"
	 width="70.156px" height="129.453px" viewBox="7.844 14.473 70.156 129.453" enable-background="new 7.844 14.473 70.156 129.453"
	 xml:space="preserve">
<rect x="-190.993" y="-23.399" display="none" fill="#11263E" width="580.472" height="541.474"/>
<path opacity="0.5" fill="#F1F2F2" enable-background="new    " d="M78,49.552c0,19.372-35.078,94.374-35.078,94.374
	S7.844,68.924,7.844,49.552c0-19.373,15.704-35.079,35.078-35.079S78,30.18,78,49.552z"/>
<path fill="#F1F2F2" d="M67.128,61.278c0,13.369-24.206,59.664-24.206,59.664S18.716,74.647,18.716,61.278
	c0-13.372,10.837-24.208,24.206-24.208C56.291,37.07,67.128,47.907,67.128,61.278z"/>
<path display="none" opacity="0.8" fill="#F1F2F2" enable-background="new    " d="M93.902,265.531
	c0,8.257-14.951,36.853-14.951,36.853S64,273.788,64,265.531c0-8.26,6.695-14.952,14.951-14.952
	C87.208,250.579,93.902,257.271,93.902,265.531z"/>
<path display="none" opacity="0.8" fill="#F1F2F2" enable-background="new    " d="M137.902,265.531
	c0,8.257-14.951,36.853-14.951,36.853S108,273.788,108,265.531c0-8.26,6.693-14.952,14.951-14.952
	C131.208,250.579,137.902,257.271,137.902,265.531z"/>
<path display="none" fill="none" stroke="#000000" stroke-width="15.0468" stroke-linecap="round" stroke-linejoin="round" stroke-miterlimit="10" d="
	M151.297,200.329c-13.936,3.302-32.539,5.79-50.053,5.601c-18.521-0.197-39.014-3.507-50.521-6.994"/>
</svg>
