<?xml version="1.0" encoding="utf-8"?>
<!-- Generator: Adobe Illustrator 15.0.0, SVG Export Plug-In . SVG Version: 6.00 Build 0)  -->
<!DOCTYPE svg PUBLIC "-//W3C//DTD SVG 1.1//EN" "http://www.w3.org/Graphics/SVG/1.1/DTD/svg11.dtd">
<svg version="1.1" id="Layer_1" xmlns="http://www.w3.org/2000/svg" xmlns:xlink="http://www.w3.org/1999/xlink" x="0px" y="0px"
	 width="99.523px" height="71.552px" viewBox="24.238 13.417 99.523 71.552" enable-background="new 24.238 13.417 99.523 71.552"
	 xml:space="preserve">
<rect x="-190.993" y="-23.399" display="none" fill="#11263E" width="580.472" height="541.474"/>
<path opacity="0.8" fill="#F1F2F2" enable-background="new    " d="M64.508,35.34c0,11.12-20.135,49.629-20.135,49.629
	S24.238,46.459,24.238,35.34c0-11.123,9.016-20.136,20.135-20.136C55.492,15.204,64.508,24.217,64.508,35.34z"/>
<path opacity="0.8" fill="#F1F2F2" enable-background="new    " d="M123.762,35.34c0,11.12-20.134,49.629-20.134,49.629
	S83.492,46.459,83.492,35.34c0-11.123,9.014-20.136,20.136-20.136C114.747,15.204,123.762,24.217,123.762,35.34z"/>
<path display="none" fill="none" stroke="#000000" stroke-width="15.0468" stroke-linecap="round" stroke-linejoin="round" stroke-miterlimit="10" d="
	M151.297,200.329c-13.936,3.302-32.539,5.79-50.053,5.601c-18.521-0.197-39.014-3.507-50.521-6.994"/>
</svg>
