<?xml version="1.0" encoding="utf-8"?>
<!-- Generator: Adobe Illustrator 15.0.0, SVG Export Plug-In . SVG Version: 6.00 Build 0)  -->
<!DOCTYPE svg PUBLIC "-//W3C//DTD SVG 1.1//EN" "http://www.w3.org/Graphics/SVG/1.1/DTD/svg11.dtd">
<svg version="1.1" id="Layer_1" xmlns="http://www.w3.org/2000/svg" xmlns:xlink="http://www.w3.org/1999/xlink" x="0px" y="0px"
	 width="21.75px" height="21.75px" viewBox="0 0 21.75 21.75" enable-background="new 0 0 21.75 21.75" xml:space="preserve">
<g>
	<g>
		<path fill="#FFFFFF" d="M17.279,21.75H4.471C2.006,21.75,0,19.744,0,17.279V4.471C0,2.006,2.006,0,4.471,0h12.809
			c2.465,0,4.471,2.006,4.471,4.471v12.809C21.75,19.744,19.744,21.75,17.279,21.75z M4.471,2.418c-1.133,0-2.053,0.92-2.053,2.053
			v12.809c0,1.133,0.92,2.053,2.053,2.053h12.809c1.133,0,2.053-0.92,2.053-2.053V4.471c0-1.133-0.92-2.053-2.053-2.053H4.471z"/>
	</g>
	<g>
		<path fill="#FFFFFF" d="M10.875,16.084c-2.873,0-5.209-2.336-5.209-5.209s2.336-5.209,5.209-5.209s5.209,2.336,5.209,5.209
			S13.748,16.084,10.875,16.084z M10.875,8.084c-1.539,0-2.793,1.252-2.793,2.791s1.254,2.791,2.793,2.791s2.791-1.252,2.791-2.791
			S12.414,8.084,10.875,8.084z"/>
	</g>
	<path fill="#FFFFFF" d="M16.641,3.998c0.793,0,1.438,0.645,1.438,1.438c0,0.791-0.645,1.438-1.438,1.438
		c-0.791,0-1.438-0.646-1.438-1.438C15.203,4.643,15.85,3.998,16.641,3.998"/>
</g>
</svg>
