<?xml version="1.0" encoding="utf-8"?>
<!-- Generator: Adobe Illustrator 15.0.0, SVG Export Plug-In . SVG Version: 6.00 Build 0)  -->
<!DOCTYPE svg PUBLIC "-//W3C//DTD SVG 1.1//EN" "http://www.w3.org/Graphics/SVG/1.1/DTD/svg11.dtd">
<svg version="1.1" id="Layer_1" xmlns="http://www.w3.org/2000/svg" xmlns:xlink="http://www.w3.org/1999/xlink" x="0px" y="0px"
	 width="188.388px" height="76.109px" viewBox="0 9.109 188.388 76.109" enable-background="new 0 9.109 188.388 76.109"
	 xml:space="preserve">
<g>
	<path fill="#F6F6F6" d="M143.096,18.947c-0.084-2.849-0.978-4.839-1.016-4.921l-0.112-0.248l-0.262-0.077
		c-0.056-0.019-1.431-0.426-3.452-0.426c-3.08,0-7.496,0.939-11.035,5.424c-0.909,1.156-1.74,2.298-2.505,3.407
		c-0.241-0.11-1.521-0.621-3.361-0.173c-2.572,0.622-4.968,2.745-7.121,6.308l-0.558,0.919l1.074-0.009c0.062,0,0.119,0,0.182,0
		c2.778,0,4.379,0.527,5.073,0.827c-0.819,1.602-1.236,2.592-1.248,2.616L118.7,32.73l0.009,0.143
		c0.066,0.892,1.625,2.702,3.061,3.955c1.485,1.294,3.278,2.373,4.268,2.563l0.223,0.043l0.194-0.115
		c0.023-0.013,0.896-0.532,2.3-1.501c0.374,0.581,1.213,2.168,1.602,5.216l0.135,1.066l0.837-0.675
		c3.241-2.615,5.019-5.275,5.289-7.907c0.212-2.052-0.618-3.305-0.654-3.359l-0.352,0.24c1.131-1.013,2.303-2.13,3.475-3.341
		C142.541,25.473,143.175,21.581,143.096,18.947z M115.825,27.968c1.783-2.665,3.747-4.333,5.723-4.846
		c1.203-0.312,2.088-0.119,2.478,0.004c-1.456,2.191-2.61,4.191-3.463,5.788C119.834,28.584,118.335,28.071,115.825,27.968z
		 M126.055,38.156c-0.684-0.223-2.063-0.983-3.499-2.233c-1.474-1.288-2.427-2.586-2.616-3.041c0.252-0.573,1.129-2.497,2.617-5.101
		c0.821,1.143,2.194,2.738,3.705,4.059c1.272,1.109,2.888,2.22,4.433,3.071C128.386,36.683,126.638,37.795,126.055,38.156z
		 M131.382,41.807c-0.467-2.615-1.241-4.061-1.649-4.684c1.458-1.049,3.294-2.465,5.284-4.205
		C135.318,33.472,136.879,36.95,131.382,41.807z M138.219,28.224c-2.271,2.35-4.535,4.321-6.498,5.886
		c-1.597-0.833-3.333-2.011-4.664-3.175c-1.659-1.446-3.137-3.228-3.83-4.297c1.283-2.146,2.925-4.641,4.936-7.195
		c3.24-4.105,7.278-4.968,10.093-4.968c1.338,0,2.374,0.199,2.839,0.308C141.604,16.138,143.636,22.606,138.219,28.224z"/>
	<path fill="#F6F6F6" d="M134.344,18.316c-1.222,0-2.384,0.528-3.187,1.449c-0.743,0.851-1.109,1.939-1.034,3.066
		c0.076,1.128,0.586,2.159,1.438,2.902c0.771,0.671,1.757,1.042,2.781,1.042c1.223,0,2.382-0.527,3.186-1.448
		c1.533-1.757,1.353-4.434-0.403-5.969C136.355,18.687,135.369,18.316,134.344,18.316z M136.626,24.539
		c-0.575,0.66-1.408,1.036-2.282,1.036c-0.734,0-1.441-0.264-1.993-0.747c-0.609-0.533-0.975-1.271-1.029-2.079
		c-0.057-0.808,0.207-1.586,0.739-2.196c0.574-0.659,1.408-1.039,2.283-1.039c0.731,0,1.438,0.266,1.991,0.748
		C137.594,21.364,137.725,23.281,136.626,24.539z"/>
	<path fill="#F6F6F6" d="M14.801,68.554h-4.9c-2.853,0-3.518-0.999-3.518-1.998c0-0.761,0.333-1.283,0.855-1.713
		c1.333,0.761,3.092,1.189,5.139,1.189c5.516,0,8.75-3.14,8.75-7.991c0-2.044-0.618-3.805-1.712-5.137
		c0.332-0.76,0.856-1.473,2.283-1.473c0.761,0,1.378-0.619,1.378-1.381s-0.617-1.379-1.378-1.379c-2.379,0-3.424,1.094-4.234,2.566
		c-1.333-0.76-3.14-1.188-5.089-1.188c-5.518,0-8.752,3.14-8.752,7.989c0,2.047,0.572,3.76,1.712,5.186
		c-1.14,0.762-1.901,1.902-1.901,3.329c0,1.856,1.188,3.282,2.948,3.854c-2.236,0.904-3.615,2.616-3.615,4.806
		c0,5.231,5.231,6.657,10.131,6.657c5.754,0,10.223-1.902,10.223-6.85C23.123,70.553,19.415,68.554,14.801,68.554z M12.377,52.811
		c3.662,0,5.658,2.092,5.658,5.231s-1.996,5.233-5.658,5.233c-3.663,0-5.662-2.094-5.662-5.233S8.714,52.811,12.377,52.811z
		 M12.947,79.209c-3.758,0-7.086-1.094-7.086-3.996c0-1.902,1.237-3.329,3.995-3.806h4.948c3.09,0,5.23,0.999,5.23,3.615
		C20.031,78.115,16.703,79.209,12.947,79.209z"/>
	<path fill="#F6F6F6" d="M35.249,50.053c-3.993,0-6.563,1.666-7.896,3.758c-0.143,0.237-0.237,0.475-0.237,0.809
		c0,0.762,0.617,1.379,1.38,1.379c0.429,0,0.761-0.143,1.236-0.664c1.475-1.666,2.996-2.428,5.517-2.428
		c3.474,0,5.614,1.998,5.614,5.23v1.286h-6.706c-5.138,0-8.323,2.521-8.323,6.705c0,4.375,3.186,6.802,8.229,6.802
		c2.853,0,5.615-1.189,6.8-3.425v1.713c0,0.81,0.667,1.476,1.475,1.476c0.808,0,1.476-0.666,1.476-1.476V58.139
		C43.812,53.287,40.768,50.053,35.249,50.053z M40.863,64.084c0,4.044-3.187,6.089-6.516,6.089c-3.71,0-5.42-1.569-5.42-4.042
		c0-2.757,2.139-4.043,5.23-4.043h6.706V64.084z"/>
	<path fill="#F6F6F6" d="M56.841,53.572c0.809,0,1.426-0.617,1.426-1.428c0-0.809-0.618-1.428-1.426-1.428h-3.092v-4.992
		c0-0.81-0.665-1.521-1.522-1.521c-0.809,0-1.522,0.713-1.522,1.521v4.992h-1.855c-0.809,0-1.428,0.62-1.428,1.428
		c0,0.809,0.619,1.428,1.428,1.428h1.855v13.126c0,3.474,2.045,5.995,5.802,5.995c0.81,0,1.474-0.618,1.474-1.428
		c0-0.809-0.664-1.427-1.474-1.427c-1.617,0-2.758-1.093-2.758-3.141V53.572H56.841z"/>
	<path fill="#F6F6F6" d="M71.155,50.053c-6.183,0-9.797,4.09-9.797,11.416c0,7.99,3.946,11.462,10.272,11.462
		c4.234,0,6.707-1.949,7.421-2.663c0.283-0.285,0.522-0.571,0.522-1.094c0-0.76-0.619-1.379-1.38-1.379
		c-0.381,0-0.571,0.094-0.857,0.284c-1.331,0.998-2.947,2.045-5.708,2.045c-4.471,0-7.183-3.043-7.183-7.754h13.89
		c1.903,0,1.903-1.665,1.903-3.044C80.241,56.094,78.764,50.053,71.155,50.053z M64.448,59.709c0.287-4.233,2.569-6.896,6.706-6.896
		c4.9,0,6.088,3.471,6.088,6.896H64.448z"/>
	<path fill="#F6F6F6" d="M129.706,50.053c-3.994,0-6.563,1.666-7.896,3.758c-0.141,0.237-0.238,0.475-0.238,0.809
		c0,0.762,0.619,1.379,1.379,1.379c0.43,0,0.764-0.143,1.236-0.664c1.476-1.666,2.998-2.428,5.518-2.428
		c3.473,0,5.615,1.998,5.615,5.23v1.286h-6.706c-5.139,0-8.324,2.521-8.324,6.705c0,4.375,3.187,6.802,8.229,6.802
		c2.854,0,5.613-1.189,6.802-3.425v1.713c0,0.81,0.665,1.476,1.474,1.476c0.81,0,1.475-0.666,1.475-1.476V58.139
		C138.267,53.287,135.224,50.053,129.706,50.053z M135.32,64.084c0,4.044-3.187,6.089-6.518,6.089c-3.708,0-5.421-1.569-5.421-4.042
		c0-2.757,2.139-4.043,5.232-4.043h6.706V64.084L135.32,64.084z"/>
	<path fill="#F6F6F6" d="M158.953,50.337c-0.854,0-1.235,0.523-1.425,1l-6.706,16.41l-6.706-16.41c-0.19-0.476-0.571-1-1.427-1
		s-1.523,0.667-1.523,1.522c0,0.334,0.095,0.523,0.144,0.666l8.085,19.217c0.285,0.616,0.808,0.951,1.427,0.951
		c0.618,0,1.142-0.333,1.428-0.951l8.086-19.217c0.046-0.143,0.142-0.331,0.142-0.666C160.477,51.004,159.813,50.337,158.953,50.337
		z"/>
	<path fill="#F6F6F6" d="M181.782,59.328c0-3.234-1.475-9.275-9.084-9.275c-6.184,0-9.801,4.09-9.801,11.416
		c0,7.99,3.951,11.462,10.273,11.462c4.236,0,6.707-1.949,7.421-2.663c0.287-0.285,0.524-0.571,0.524-1.094
		c0-0.76-0.618-1.379-1.381-1.379c-0.381,0-0.57,0.094-0.856,0.284c-1.331,0.998-2.948,2.045-5.71,2.045
		c-4.469,0-7.178-3.043-7.178-7.754h13.887C181.782,62.371,181.782,60.707,181.782,59.328z M165.993,59.709
		c0.283-4.233,2.567-6.896,6.704-6.896c4.899,0,6.086,3.471,6.086,6.896H165.993z"/>
	<path fill="#F6F6F6" d="M118.47,38.87c-0.456,0-0.888,0.203-1.18,0.555c-0.105,0.125-2.572,3.149-4.116,8.909
		c-0.898,3.342-1.433,7.075-1.946,10.687c-0.444,3.11-0.863,6.05-1.453,8.124c-0.568,1.979-1.101,2.431-1.2,2.435
		c-0.348,0-0.857-0.516-1.355-1.38c-0.676-1.171-1.281-2.823-1.869-4.425c-1.368-3.719-2.657-7.232-5.537-7.232
		c-2.152,0-3.271,2.175-3.636,2.891c-0.689,1.341-1.262,3.073-1.814,4.753c-0.491,1.487-0.998,3.025-1.543,4.141
		c-0.571,1.16-0.944,1.357-0.996,1.379c-0.505-0.009-1.849-0.739-3.583-7.175c-0.181-0.667-0.788-1.134-1.479-1.134
		c-0.135,0-0.268,0.018-0.401,0.053c-0.816,0.221-1.299,1.064-1.081,1.881c0.485,1.792,1.158,4.083,2.098,5.906
		c1.213,2.348,2.71,3.538,4.456,3.538c2.149,0,3.266-2.176,3.632-2.89c0.69-1.339,1.256-3.07,1.809-4.743
		c0.496-1.497,1.008-3.046,1.557-4.161c0.571-1.154,0.938-1.346,0.983-1.367c0.054,0.016,0.393,0.146,0.954,1.146
		c0.59,1.054,1.132,2.522,1.704,4.077c1.411,3.842,2.868,7.813,6.103,7.813c2.819,0,3.784-3.386,4.148-4.661
		c0.648-2.273,1.082-5.313,1.542-8.533c0.5-3.52,1.02-7.16,1.868-10.321c1.361-5.071,3.503-7.728,3.521-7.754
		c0.536-0.649,0.445-1.617-0.206-2.154C119.176,38.994,118.829,38.87,118.47,38.87z"/>
</g>
</svg>
