<?xml version="1.0" encoding="utf-8"?>
<!-- Generator: Adobe Illustrator 15.0.0, SVG Export Plug-In . SVG Version: 6.00 Build 0)  -->
<!DOCTYPE svg PUBLIC "-//W3C//DTD SVG 1.1//EN" "http://www.w3.org/Graphics/SVG/1.1/DTD/svg11.dtd">
<svg version="1.1" id="Layer_1" xmlns="http://www.w3.org/2000/svg" xmlns:xlink="http://www.w3.org/1999/xlink" x="0px" y="0px"
	 width="35px" height="24.285px" viewBox="0 0 35 24.285" enable-background="new 0 0 35 24.285" xml:space="preserve">
<g>
	<path fill="#F88249" d="M32.416,3.934H2.583c-1.381,0-2.5-0.88-2.5-1.967C0.083,0.88,1.202,0,2.583,0h29.833
		c1.381,0,2.5,0.88,2.5,1.967C34.916,3.054,33.797,3.934,32.416,3.934z"/>
</g>
<g>
	<path fill="#F88249" d="M32.416,24.285H2.583c-1.381,0-2.5-0.881-2.5-1.967c0-1.087,1.119-1.967,2.5-1.967h29.833
		c1.381,0,2.5,0.88,2.5,1.967C34.916,23.404,33.797,24.285,32.416,24.285z"/>
</g>
<g>
	<path fill="#F88249" d="M32.416,14.109H2.583c-1.381,0-2.5-0.881-2.5-1.966c0-1.087,1.119-1.967,2.5-1.967h29.833
		c1.381,0,2.5,0.88,2.5,1.967C34.916,13.228,33.797,14.109,32.416,14.109z"/>
</g>
</svg>
