<?xml version="1.0" encoding="utf-8"?>
<!-- Generator: Adobe Illustrator 15.0.0, SVG Export Plug-In . SVG Version: 6.00 Build 0)  -->
<!DOCTYPE svg PUBLIC "-//W3C//DTD SVG 1.1//EN" "http://www.w3.org/Graphics/SVG/1.1/DTD/svg11.dtd">
<svg version="1.1" id="Layer_1" xmlns="http://www.w3.org/2000/svg" xmlns:xlink="http://www.w3.org/1999/xlink" x="0px" y="0px"
	 width="1920px" height="1363px" viewBox="0 0 1920 1363" enable-background="new 0 0 1920 1363" xml:space="preserve">
<g>
	<g>
		<g>
			<defs>
				<rect id="SVGID_1_" x="-0.375" width="1608.875" height="1364.424"/>
			</defs>
			<clipPath id="SVGID_2_">
				<use xlink:href="#SVGID_1_"  overflow="visible"/>
			</clipPath>
			<g clip-path="url(#SVGID_2_)">
				<path fill="#EDF3F1" d="M634.398,1358.707c-372.183,37.708-704.437-233.441-742.129-605.638
					C-145.428,380.873,125.753,48.602,497.928,10.91c372.174-37.694,704.453,233.477,742.163,605.659
					C1277.756,988.747,1006.607,1321.021,634.398,1358.707z"/>
				<path fill="#E3E4E4" d="M138.129,356.768c-28.265,2.857-53.498-17.728-56.353-45.979c-2.867-28.266,17.721-53.503,45.989-56.366
					c28.262-2.854,53.491,17.736,56.345,45.993C186.978,328.678,166.391,353.911,138.129,356.768z"/>
				<path fill="#E3E4E4" d="M846.875,1095.961c-28.265,2.856-53.499-17.729-56.355-45.982
					c-2.866-28.264,17.721-53.498,45.991-56.363c28.264-2.854,53.488,17.74,56.345,45.992
					C895.727,1067.872,875.14,1093.105,846.875,1095.961z"/>
				<path fill="#E3E4E4" d="M1007.201,1117.701c-28.266,2.855-53.498-17.729-56.354-45.98c-2.869-28.267,17.719-53.503,45.99-56.367
					c28.26-2.851,53.489,17.74,56.343,45.994C1056.052,1089.61,1035.466,1114.845,1007.201,1117.701z"/>
				<path fill="#E3E4E4" d="M249.356,360.645c-10.399,1.048-19.688-6.527-20.746-16.938c-1.062-10.41,6.53-19.692,16.934-20.744
					c10.405-1.051,19.695,6.525,20.74,16.924C267.338,350.295,259.755,359.578,249.356,360.645z"/>
				<path fill="#E3E4E4" d="M969.523,963.013c-14.867,1.499-28.147-9.333-29.663-24.213c-1.509-14.881,9.337-28.143,24.211-29.649
					c14.873-1.504,28.153,9.323,29.65,24.192C995.232,948.221,984.387,961.488,969.523,963.013z"/>
				<path fill="#E3E4E4" d="M136.979,446.236c-13,1.328-24.61-8.151-25.921-21.16c-1.329-13.012,8.159-24.611,21.156-25.93
					c13.004-1.31,24.606,8.154,25.938,21.159C159.465,433.313,149.987,444.924,136.979,446.236z"/>
			</g>
		</g>
	</g>
	<g>
		<g>
			<defs>
				<rect id="SVGID_3_" x="-0.375" width="1608.875" height="1364.424"/>
			</defs>
			<clipPath id="SVGID_4_">
				<use xlink:href="#SVGID_3_"  overflow="visible"/>
			</clipPath>
			<path clip-path="url(#SVGID_4_)" fill="#52BDCB" d="M1165.891,369.558c90.247,10.487,143.517,33.487,150.828,69.439
				c19.51,95.876-252.643,279.397-692.247,358.528c-310.716,55.927-637.184,49.714-779.56,20.042
				c-57.064-11.896-91.992-31.794-97.572-59.229l-313.528,63.796c16.187,79.55,124.45,154.599,391.623,212.935
				c187.646,40.974,531.589,50.101,832.314-8.794c703.365-137.74,896.787-539.246,898.623-636.046
				c1.485-78.281-180.29-99.965-428.04-83.498L1165.891,369.558z"/>
		</g>
	</g>
	<g>
		<g>
			<defs>
				<rect id="SVGID_5_" x="-0.375" width="1608.875" height="1364.424"/>
			</defs>
			<clipPath id="SVGID_6_">
				<use xlink:href="#SVGID_5_"  overflow="visible"/>
			</clipPath>
			<g clip-path="url(#SVGID_6_)">
				<g>
					<g>
						<g>
							<defs>
								<rect id="SVGID_7_" x="-0.375" y="8.999" width="1608.875" height="1351.621"/>
							</defs>
							<clipPath id="SVGID_8_">
								<use xlink:href="#SVGID_7_"  overflow="visible"/>
							</clipPath>
							<rect x="-34.062" y="-1.691" clip-path="url(#SVGID_8_)" fill="none" width="1278.159" height="1391.454"/>
						</g>
					</g>
					<g>
						<g>
							<defs>
								<rect id="SVGID_9_" x="-0.375" width="1608.875" height="1364.424"/>
							</defs>
							<clipPath id="SVGID_10_">
								<use xlink:href="#SVGID_9_"  overflow="visible"/>
							</clipPath>
							<g opacity="0.33" clip-path="url(#SVGID_10_)">
								<path fill="#87ACAF" d="M657.747,1026.281c-221.675,43.412-466.828,49.863-655.559,33.842
									c134.689,202.034,373.81,324.766,632.212,298.584c308.882-31.275,548.146-265.431,599.099-556.896
									C1097.651,893.116,910.668,976.75,657.747,1026.281z"/>
							</g>
						</g>
						<g>
							<g>
								<defs>
									<rect id="SVGID_11_" x="-0.375" width="1608.875" height="1364.424"/>
								</defs>
								<clipPath id="SVGID_12_">
									<use xlink:href="#SVGID_11_"  overflow="visible"/>
								</clipPath>
								<path opacity="0.98" clip-path="url(#SVGID_12_)" fill="#09A4A8" enable-background="new    " d="M1303.953,301.901
									c-52.883-1.108-112.084,0.606-175.623,4.83l37.561,62.826c9.762,1.135,19.088,2.415,27.97,3.842L1303.953,301.901z"/>
							</g>
							<g>
								<g>
									<defs>
										<rect id="SVGID_13_" x="-0.375" width="1608.875" height="1364.424"/>
									</defs>
									<clipPath id="SVGID_14_">
										<use xlink:href="#SVGID_13_"  overflow="visible"/>
									</clipPath>
									<path clip-path="url(#SVGID_14_)" fill="#3A98A0" d="M-155.087,817.567c-57.064-11.896-91.992-31.794-97.572-59.229
										l-313.528,63.795c16.188,79.551,124.45,154.601,391.624,212.935"/>
								</g>
							</g>
						</g>
					</g>
				</g>
			</g>
		</g>
	</g>
</g>
</svg>
