<?xml version="1.0" encoding="utf-8"?>
<!-- Generator: Adobe Illustrator 15.0.0, SVG Export Plug-In . SVG Version: 6.00 Build 0)  -->
<!DOCTYPE svg PUBLIC "-//W3C//DTD SVG 1.1//EN" "http://www.w3.org/Graphics/SVG/1.1/DTD/svg11.dtd">
<svg version="1.1" id="Layer_1" xmlns="http://www.w3.org/2000/svg" xmlns:xlink="http://www.w3.org/1999/xlink" x="0px" y="0px"
	 width="21.75px" height="21.75px" viewBox="0 0 21.75 21.75" enable-background="new 0 0 21.75 21.75" xml:space="preserve">
<path fill="#FFFFFF" d="M21.518,3.724c-0.792,0.351-1.409,0.488-2.301,0.595c0.911-0.546,1.611-1.411,1.942-2.444
	c-0.853,0.507-1.799,0.875-2.804,1.073c-0.806-0.858-1.954-1.396-3.225-1.396c-2.438,0-4.415,1.978-4.415,4.417
	c0,0.346,0.039,0.682,0.116,1.005c-3.67-0.183-6.925-1.942-9.103-4.613c-0.379,0.652-0.598,1.411-0.598,2.22
	c0,1.531,0.78,2.883,1.965,3.675c-0.723-0.022-1.405-0.221-2-0.552c0,0.017,0,0.038,0,0.054c0,2.139,1.523,3.925,3.542,4.329
	c-0.37,0.102-0.761,0.156-1.163,0.156c-0.286,0-0.562-0.026-0.832-0.079c0.562,1.754,2.191,3.031,4.126,3.067
	c-1.512,1.185-3.416,1.89-5.486,1.89c-0.355,0-0.708-0.021-1.052-0.063c0,0,1.626,2.25,7.313,3.039
	c5.685,0.789,15.468-3.052,12.005-14.189C20.414,5.288,20.926,4.61,21.518,3.724"/>
</svg>
